<svg xmlns="http://www.w3.org/2000/svg" width="84" height="84" fill="none" xmlns:v="https://vecta.io/nano"><path fill-rule="evenodd" d="M70.185 71.38c-3.365 6.246-11.465 7.556-17.712 4.191-3.365 6.246-10.849 9.607-17.097 6.242a12.85 12.85 0 0 1-5.382-17.093 12.85 12.85 0 0 1-17.234 4.91C6.513 66.265 5.202 58.166 8.567 51.92c-6.247-3.365-9.61-10.85-6.245-17.096a12.85 12.85 0 0 1 17.404-5.216l45.239 24.37a12.85 12.85 0 0 1 5.219 17.404zm12.187-22.623c3.365-6.246.002-13.731-6.245-17.096 3.365-6.246 2.053-14.345-4.194-17.711a12.85 12.85 0 0 0-17.234 4.91 12.85 12.85 0 0 0-5.382-17.093C43.07-1.598 35.585 1.763 32.22 8.009 25.973 4.644 17.873 5.954 14.509 12.2a12.85 12.85 0 0 0 5.22 17.404l45.239 24.37a12.85 12.85 0 0 0 17.404-5.216z" fill="#ff2800"/></svg>